<mxfile host="app.diagrams.net" modified="2023-05-10T16:17:10.699Z" agent="Mozilla/5.0 (Windows NT 10.0; Win64; x64) AppleWebKit/537.36 (KHTML, like Gecko) Chrome/113.0.0.0 Safari/537.36" etag="GBoFpVXJUhBEfhtl_NBg" version="21.2.9" type="device">
  <diagram name="Page-1" id="ji6D9h7w0tHhL1ibPshp">
    <mxGraphModel dx="1293" dy="1738" grid="1" gridSize="10" guides="1" tooltips="1" connect="1" arrows="1" fold="1" page="1" pageScale="1" pageWidth="850" pageHeight="1100" math="0" shadow="0">
      <root>
        <mxCell id="0" />
        <mxCell id="1" parent="0" />
        <mxCell id="ISIfmmStDCZut8MeZyhU-2" value="&lt;i&gt;Actor&lt;/i&gt;" style="html=1;whiteSpace=wrap;" parent="1" vertex="1">
          <mxGeometry x="790" y="-260" width="110" height="50" as="geometry" />
        </mxCell>
        <mxCell id="ISIfmmStDCZut8MeZyhU-25" style="edgeStyle=orthogonalEdgeStyle;rounded=0;orthogonalLoop=1;jettySize=auto;html=1;exitX=0.25;exitY=0;exitDx=0;exitDy=0;entryX=0.5;entryY=1;entryDx=0;entryDy=0;endArrow=open;endFill=0;" parent="1" source="ISIfmmStDCZut8MeZyhU-4" target="ISIfmmStDCZut8MeZyhU-2" edge="1">
          <mxGeometry relative="1" as="geometry">
            <Array as="points">
              <mxPoint x="1087" y="40" />
              <mxPoint x="845" y="40" />
            </Array>
          </mxGeometry>
        </mxCell>
        <mxCell id="ISIfmmStDCZut8MeZyhU-32" value="Has" style="edgeLabel;html=1;align=center;verticalAlign=middle;resizable=0;points=[];" parent="ISIfmmStDCZut8MeZyhU-25" vertex="1" connectable="0">
          <mxGeometry x="0.4649" relative="1" as="geometry">
            <mxPoint x="155" y="43" as="offset" />
          </mxGeometry>
        </mxCell>
        <mxCell id="ISIfmmStDCZut8MeZyhU-33" value="1" style="edgeLabel;html=1;align=center;verticalAlign=middle;resizable=0;points=[];" parent="ISIfmmStDCZut8MeZyhU-25" vertex="1" connectable="0">
          <mxGeometry x="-0.976" y="-1" relative="1" as="geometry">
            <mxPoint x="-11" y="-5" as="offset" />
          </mxGeometry>
        </mxCell>
        <mxCell id="ISIfmmStDCZut8MeZyhU-34" value="0..1" style="edgeLabel;html=1;align=center;verticalAlign=middle;resizable=0;points=[];" parent="ISIfmmStDCZut8MeZyhU-25" vertex="1" connectable="0">
          <mxGeometry x="0.9538" y="2" relative="1" as="geometry">
            <mxPoint x="27" y="-8" as="offset" />
          </mxGeometry>
        </mxCell>
        <mxCell id="fm_RcOmM9eyzvQO7ZstS-2" style="edgeStyle=orthogonalEdgeStyle;rounded=0;orthogonalLoop=1;jettySize=auto;html=1;exitX=0.5;exitY=0;exitDx=0;exitDy=0;endArrow=block;endFill=0;" edge="1" parent="1" source="ISIfmmStDCZut8MeZyhU-4" target="ISIfmmStDCZut8MeZyhU-5">
          <mxGeometry relative="1" as="geometry">
            <Array as="points">
              <mxPoint x="1115" y="40" />
              <mxPoint x="1175" y="40" />
            </Array>
          </mxGeometry>
        </mxCell>
        <mxCell id="ISIfmmStDCZut8MeZyhU-4" value="DeathAction" style="html=1;whiteSpace=wrap;" parent="1" vertex="1">
          <mxGeometry x="1060" y="260" width="110" height="50" as="geometry" />
        </mxCell>
        <mxCell id="ISIfmmStDCZut8MeZyhU-5" value="&lt;i&gt;Action&lt;/i&gt;" style="html=1;whiteSpace=wrap;" parent="1" vertex="1">
          <mxGeometry x="1120" y="-260" width="110" height="50" as="geometry" />
        </mxCell>
        <mxCell id="ISIfmmStDCZut8MeZyhU-19" style="edgeStyle=orthogonalEdgeStyle;rounded=0;orthogonalLoop=1;jettySize=auto;html=1;exitX=0.5;exitY=0;exitDx=0;exitDy=0;entryX=0.5;entryY=1;entryDx=0;entryDy=0;endArrow=block;endFill=0;" parent="1" source="ISIfmmStDCZut8MeZyhU-8" target="ISIfmmStDCZut8MeZyhU-11" edge="1">
          <mxGeometry relative="1" as="geometry" />
        </mxCell>
        <mxCell id="ISIfmmStDCZut8MeZyhU-22" style="edgeStyle=orthogonalEdgeStyle;rounded=0;orthogonalLoop=1;jettySize=auto;html=1;exitX=1;exitY=0.5;exitDx=0;exitDy=0;dashed=1;endArrow=open;endFill=0;" parent="1" source="ISIfmmStDCZut8MeZyhU-8" target="ISIfmmStDCZut8MeZyhU-4" edge="1">
          <mxGeometry relative="1" as="geometry" />
        </mxCell>
        <mxCell id="ISIfmmStDCZut8MeZyhU-8" value="Cliff" style="html=1;whiteSpace=wrap;" parent="1" vertex="1">
          <mxGeometry x="510" y="260" width="110" height="50" as="geometry" />
        </mxCell>
        <mxCell id="ISIfmmStDCZut8MeZyhU-20" style="edgeStyle=orthogonalEdgeStyle;rounded=0;orthogonalLoop=1;jettySize=auto;html=1;exitX=0.5;exitY=0;exitDx=0;exitDy=0;endArrow=block;endFill=0;" parent="1" source="ISIfmmStDCZut8MeZyhU-9" target="ISIfmmStDCZut8MeZyhU-11" edge="1">
          <mxGeometry relative="1" as="geometry" />
        </mxCell>
        <mxCell id="ISIfmmStDCZut8MeZyhU-26" style="edgeStyle=orthogonalEdgeStyle;rounded=0;orthogonalLoop=1;jettySize=auto;html=1;exitX=0;exitY=0.5;exitDx=0;exitDy=0;entryX=0;entryY=0.5;entryDx=0;entryDy=0;endArrow=open;endFill=0;" parent="1" source="ISIfmmStDCZut8MeZyhU-9" target="ISIfmmStDCZut8MeZyhU-16" edge="1">
          <mxGeometry relative="1" as="geometry">
            <Array as="points">
              <mxPoint x="280" y="285" />
              <mxPoint x="280" y="-275" />
            </Array>
          </mxGeometry>
        </mxCell>
        <mxCell id="ISIfmmStDCZut8MeZyhU-27" value="Has" style="edgeLabel;html=1;align=center;verticalAlign=middle;resizable=0;points=[];" parent="ISIfmmStDCZut8MeZyhU-26" vertex="1" connectable="0">
          <mxGeometry x="-0.1242" y="-1" relative="1" as="geometry">
            <mxPoint y="19" as="offset" />
          </mxGeometry>
        </mxCell>
        <mxCell id="ISIfmmStDCZut8MeZyhU-28" value="1" style="edgeLabel;html=1;align=center;verticalAlign=middle;resizable=0;points=[];" parent="ISIfmmStDCZut8MeZyhU-26" vertex="1" connectable="0">
          <mxGeometry x="-0.9426" y="-2" relative="1" as="geometry">
            <mxPoint x="13" y="-13" as="offset" />
          </mxGeometry>
        </mxCell>
        <mxCell id="ISIfmmStDCZut8MeZyhU-29" value="1" style="edgeLabel;html=1;align=center;verticalAlign=middle;resizable=0;points=[];" parent="ISIfmmStDCZut8MeZyhU-26" vertex="1" connectable="0">
          <mxGeometry x="0.9626" relative="1" as="geometry">
            <mxPoint x="1" y="-15" as="offset" />
          </mxGeometry>
        </mxCell>
        <mxCell id="fm_RcOmM9eyzvQO7ZstS-4" style="edgeStyle=orthogonalEdgeStyle;rounded=0;orthogonalLoop=1;jettySize=auto;html=1;exitX=0.5;exitY=1;exitDx=0;exitDy=0;entryX=0.5;entryY=1;entryDx=0;entryDy=0;dashed=1;endArrow=open;endFill=0;" edge="1" parent="1" source="ISIfmmStDCZut8MeZyhU-9" target="fm_RcOmM9eyzvQO7ZstS-1">
          <mxGeometry relative="1" as="geometry">
            <Array as="points">
              <mxPoint x="425" y="400" />
              <mxPoint x="1235" y="400" />
            </Array>
          </mxGeometry>
        </mxCell>
        <mxCell id="ISIfmmStDCZut8MeZyhU-9" value="GoldenFogDoor" style="html=1;whiteSpace=wrap;" parent="1" vertex="1">
          <mxGeometry x="370" y="260" width="110" height="50" as="geometry" />
        </mxCell>
        <mxCell id="ISIfmmStDCZut8MeZyhU-10" value="positions" style="shape=umlFrame;whiteSpace=wrap;html=1;pointerEvents=0;fillColor=#dae8fc;strokeColor=#6c8ebf;strokeWidth=5;" parent="1" vertex="1">
          <mxGeometry x="340" y="-360" width="300" height="305" as="geometry" />
        </mxCell>
        <mxCell id="ISIfmmStDCZut8MeZyhU-11" value="&lt;i&gt;Ground&lt;/i&gt;" style="html=1;whiteSpace=wrap;" parent="1" vertex="1">
          <mxGeometry x="440" y="-185" width="110" height="50" as="geometry" />
        </mxCell>
        <mxCell id="ISIfmmStDCZut8MeZyhU-12" style="edgeStyle=orthogonalEdgeStyle;rounded=0;orthogonalLoop=1;jettySize=auto;html=1;exitX=0.5;exitY=1;exitDx=0;exitDy=0;entryX=0.5;entryY=0;entryDx=0;entryDy=0;endArrow=open;endFill=0;" parent="1" source="ISIfmmStDCZut8MeZyhU-16" target="ISIfmmStDCZut8MeZyhU-11" edge="1">
          <mxGeometry relative="1" as="geometry" />
        </mxCell>
        <mxCell id="ISIfmmStDCZut8MeZyhU-13" value="Has" style="edgeLabel;html=1;align=center;verticalAlign=middle;resizable=0;points=[];" parent="ISIfmmStDCZut8MeZyhU-12" vertex="1" connectable="0">
          <mxGeometry x="-0.252" y="-1" relative="1" as="geometry">
            <mxPoint x="1" y="6" as="offset" />
          </mxGeometry>
        </mxCell>
        <mxCell id="ISIfmmStDCZut8MeZyhU-14" value="1" style="edgeLabel;html=1;align=center;verticalAlign=middle;resizable=0;points=[];" parent="ISIfmmStDCZut8MeZyhU-12" vertex="1" connectable="0">
          <mxGeometry x="-0.8711" y="1" relative="1" as="geometry">
            <mxPoint x="11" y="6" as="offset" />
          </mxGeometry>
        </mxCell>
        <mxCell id="ISIfmmStDCZut8MeZyhU-15" value="1" style="edgeLabel;html=1;align=center;verticalAlign=middle;resizable=0;points=[];" parent="ISIfmmStDCZut8MeZyhU-12" vertex="1" connectable="0">
          <mxGeometry x="0.6125" relative="1" as="geometry">
            <mxPoint x="12" as="offset" />
          </mxGeometry>
        </mxCell>
        <mxCell id="ISIfmmStDCZut8MeZyhU-16" value="Location" style="html=1;whiteSpace=wrap;" parent="1" vertex="1">
          <mxGeometry x="440" y="-300" width="110" height="50" as="geometry" />
        </mxCell>
        <mxCell id="ISIfmmStDCZut8MeZyhU-23" value="actions" style="shape=umlFrame;whiteSpace=wrap;html=1;pointerEvents=0;fillColor=#dae8fc;strokeColor=#6c8ebf;strokeWidth=5;" parent="1" vertex="1">
          <mxGeometry x="1070" y="-315" width="210" height="160" as="geometry" />
        </mxCell>
        <mxCell id="ISIfmmStDCZut8MeZyhU-24" value="actors" style="shape=umlFrame;whiteSpace=wrap;html=1;pointerEvents=0;fillColor=#dae8fc;strokeColor=#6c8ebf;strokeWidth=5;" parent="1" vertex="1">
          <mxGeometry x="695" y="-327.5" width="300" height="185" as="geometry" />
        </mxCell>
        <mxCell id="ISIfmmStDCZut8MeZyhU-30" value="environments" style="shape=umlFrame;whiteSpace=wrap;html=1;pointerEvents=0;width=85;height=30;fillColor=#dae8fc;strokeColor=#6c8ebf;strokeWidth=5;" parent="1" vertex="1">
          <mxGeometry x="320" y="150" width="350" height="270" as="geometry" />
        </mxCell>
        <mxCell id="ISIfmmStDCZut8MeZyhU-31" value="actions" style="shape=umlFrame;whiteSpace=wrap;html=1;pointerEvents=0;width=81;height=30;fillColor=#dae8fc;strokeColor=#6c8ebf;strokeWidth=5;" parent="1" vertex="1">
          <mxGeometry x="980" y="160" width="380" height="200" as="geometry" />
        </mxCell>
        <mxCell id="ISIfmmStDCZut8MeZyhU-35" value="&lt;b&gt;&lt;font style=&quot;font-size: 30px;&quot;&gt;game&lt;/font&gt;&lt;/b&gt;" style="shape=umlFrame;whiteSpace=wrap;html=1;pointerEvents=0;strokeWidth=5;fillColor=#f8cecc;strokeColor=#b85450;width=160;height=60;" parent="1" vertex="1">
          <mxGeometry x="80" y="120" width="1310" height="320" as="geometry" />
        </mxCell>
        <mxCell id="ISIfmmStDCZut8MeZyhU-36" value="&lt;b&gt;&lt;font style=&quot;font-size: 30px;&quot;&gt;Engine&lt;/font&gt;&lt;/b&gt;" style="shape=umlFrame;whiteSpace=wrap;html=1;pointerEvents=0;strokeWidth=5;fillColor=#f8cecc;strokeColor=#b85450;width=130;height=60;" parent="1" vertex="1">
          <mxGeometry x="80" y="-448.75" width="1310" height="427.5" as="geometry" />
        </mxCell>
        <mxCell id="fm_RcOmM9eyzvQO7ZstS-3" style="edgeStyle=orthogonalEdgeStyle;rounded=0;orthogonalLoop=1;jettySize=auto;html=1;exitX=0.5;exitY=0;exitDx=0;exitDy=0;endArrow=block;endFill=0;" edge="1" parent="1" source="fm_RcOmM9eyzvQO7ZstS-1" target="ISIfmmStDCZut8MeZyhU-5">
          <mxGeometry relative="1" as="geometry">
            <Array as="points">
              <mxPoint x="1235" y="40" />
              <mxPoint x="1175" y="40" />
            </Array>
          </mxGeometry>
        </mxCell>
        <mxCell id="fm_RcOmM9eyzvQO7ZstS-1" value="Travel Action" style="html=1;whiteSpace=wrap;" vertex="1" parent="1">
          <mxGeometry x="1180" y="260" width="110" height="50" as="geometry" />
        </mxCell>
      </root>
    </mxGraphModel>
  </diagram>
</mxfile>
